<?xml version="1.0" encoding="utf-8"?>
<!-- Generator: Adobe Illustrator 27.5.0, SVG Export Plug-In . SVG Version: 6.00 Build 0)  -->
<svg version="1.1" id="BASE" xmlns="http://www.w3.org/2000/svg" xmlns:xlink="http://www.w3.org/1999/xlink" x="0px" y="0px"
	 viewBox="0 0 2122 2122" style="enable-background:new 0 0 2122 2122;" xml:space="preserve">
<g>
	<path style="fill:#EDE4C3;" d="M1948.71,658.45l31.183-34.416V594.07l-0.012,0.013l0.004-0.011l-773.314-344.959l0.023-0.006
		l-157.484-70.234c-11.158,6.564-486.393,550.417-708.307,804.697c-56.253,64.438-96.216,110.293-108.217,124.093l-0.177,0.017
		l-46.933,59.064c-71.578,90.078-52.934,259.719,34.29,312.001l12.643,7.579l256.341,135.451
		c-36.735,26.649-77.812,53.233-123.762,79.24l173.643,25.095l16.916,2.474c0,0,0.368,2.621,1.011,7.228
		c0.106,0.777,0.218,1.608,0.337,2.494c0.003-0.002,0.008-0.005,0.01-0.007c0.002,0.01,0.004,0.021,0.005,0.031
		c2.877,21.257,9.795,73.263,14.189,112.698c53.087-28.878,106.384-63.021,156.292-103.156l368.238,194.576l884.264-975.969v-29.964
		l-31.625-14.107l0.442-0.49V658.45z"/>
	<path style="fill:#D0C9AD;" d="M1758.93,867.911l19.334-21.339L1948.71,658.45l31.183-34.416V594.07l-19.334,21.339l-27.598,30.458
		l-63.293,69.857l63.29-69.858l27.596-30.459l19.33-21.335l-773.314-344.959l0.023-0.006l-157.484-70.234
		c-11.158,6.564-486.393,550.417-708.307,804.697c-56.253,64.438-96.216,110.293-108.217,124.093l-0.177,0.017l-46.933,59.064
		c-71.578,90.078-52.934,259.719,34.29,312.001l12.643,7.579l256.341,135.451c-36.735,26.649-77.812,53.233-123.762,79.24
		l173.643,25.095l16.916,2.474c0,0,0.368,2.621,1.011,7.228c0.106,0.777,0.218,1.608,0.337,2.494
		c0.003-0.002,0.008-0.005,0.01-0.007c0.002,0.01,0.004,0.021,0.005,0.031c2.877,21.257,9.795,73.263,14.189,112.698
		c53.087-28.878,106.384-63.021,156.292-103.156l368.238,194.576l884.264-975.969v-29.964l-31.625-14.107l-19.26,21.372
		l-842.105,934.459l-3.985-175.375l-2.511-110.905l15.223,8.044L1758.93,867.911z"/>
	<path style="fill:#19283E;" d="M1929.008,943.781l-842.105,934.459l-314.518-169.134c-6.982,6.454-14.061,12.774-21.225,18.961
		c-0.575,0.496-1.15,0.994-1.726,1.489c-7.265,6.24-14.616,12.345-22.042,18.317l368.238,194.576l884.264-975.969v-29.964
		l-31.625-14.107L1929.008,943.781z"/>
	<path style="fill:#19283E;" d="M1960.559,615.409l-27.598,30.458l-63.293,69.857l63.29-69.858l27.596-30.459l19.33-21.335
		l-773.314-344.959l0.023-0.006l-157.484-70.234c-11.158,6.564-486.393,550.417-708.307,804.697
		c-56.253,64.438-96.216,110.293-108.217,124.093l-0.177,0.017l-46.933,59.064c-71.578,90.078-52.934,259.719,34.29,312.001
		l12.643,7.579l256.341,135.451c8.052-5.842,15.896-11.686,23.537-17.527c1.044-0.799,2.084-1.597,3.121-2.395
		c7.98-6.146,15.737-12.289,23.276-18.422l-261.5-140.624l-3.398-1.827l-4.826-2.596l-17.787-9.565l-0.073-0.039
		c-9.512-17.764-32.841-66.22-35.78-137.064c-2.667-64.379,12.832-114.795,24.792-143.767l0.016,0.009l38.648,20.421l7.279,3.847
		l129.363,68.355l17.905,9.46l647.083,341.918l15.223,8.044l663.301-732.092l19.334-21.339L1948.71,658.45l31.183-34.416V594.07
		L1960.559,615.409z"/>
	<path style="fill:#0A101D;" d="M273.786,1440.98l-4.826-2.596l-17.787-9.565l-0.073-0.039
		c-9.512-17.764-32.841-66.22-35.78-137.064c-2.667-64.379,12.832-114.795,24.792-143.767l-7.704-4.07l-29.906,38.41
		c-60.724,77.993-44.577,222.73,29.906,268.056l17.81,9.534l6.061,3.245l259.128,138.729c7.98-6.146,15.737-12.289,23.276-18.422
		l-261.5-140.624L273.786,1440.98z"/>
	<path style="fill:#0A101D;" d="M1948.268,922.408l-19.26,21.372l-842.105,934.459l-314.518-169.134
		c-6.982,6.454-14.061,12.774-21.225,18.961l344.47,184.418l864.93-954.629l19.334-21.34L1948.268,922.408z"/>
	<path style="fill:#142134;" d="M1206.571,249.113l0.023-0.006l-157.484-70.234c-11.158,6.564-486.393,550.417-708.307,804.697
		c-56.253,64.438-96.216,110.293-108.217,124.093c-0.022,0.025-0.045,0.051-0.067,0.076c-0.036,0.042-0.073,0.084-0.109,0.126
		c-0.005,0.005-0.01,0.011-0.014,0.016v6.008l0.014,0.008l14.304,7.558l4.821,2.547l32.762,17.312l120.682,63.765l-1.704-5.879
		l32.894,17.618l17.829,9.549l487.048,260.873l-1.454,0.343l140.128,74.056l15.893,8.4l0.005-0.007l133.8-147.684l510.17-563.064
		l19.334-21.34l102.708-113.356l0.002,0.008l8.037-8.871l63.29-69.858l27.596-30.459l19.33-21.335L1206.571,249.113z"/>
	<path style="fill:#D41F25;" d="M836.923,1571.819l-59.412-31.623l-0.002,0c0.005-0.006,0.01-0.013,0.015-0.019l-1.55-0.826
		l-18.696-9.959c-0.001,0.002-0.003,0.003-0.003,0.005l-0.012-0.007l-62.05-33.063l-41.712-22.226l-0.004,0.003
		c-31.213,35.142-68.997,72.053-114.806,109.318c-0.003,0.002-0.005,0.003-0.007,0.006c-7.539,6.132-15.296,12.276-23.276,18.422
		c-1.037,0.798-2.077,1.596-3.121,2.395c-7.641,5.842-15.485,11.686-23.537,17.527c-36.735,26.649-77.812,53.233-123.762,79.24
		l173.643,25.095l16.916,2.474c0,0,0.368,2.621,1.011,7.228c0.106,0.777,0.218,1.608,0.337,2.494
		c0.003-0.002,0.008-0.005,0.01-0.007c0.002,0.01,0.004,0.021,0.005,0.031c2.877,21.257,9.795,73.263,14.189,112.698
		c53.087-28.878,106.384-63.021,156.292-103.156c7.426-5.972,14.777-12.077,22.042-18.317c0.576-0.494,1.151-0.992,1.726-1.489
		c7.164-6.187,14.244-12.507,21.225-18.961c0.005-0.005,0.01-0.008,0.013-0.011c27.73-25.636,53.927-53.389,77.871-83.413
		c8.682-10.852,17.011-21.957,25.038-33.414c0.002-0.005,0.005-0.008,0.008-0.012L836.923,1571.819z"/>
	<path d="M251.101,1428.78c-9.512-17.764-32.841-66.22-35.78-137.064c-2.667-64.379,12.832-114.795,24.792-143.767l-7.704-4.07
		l-29.906,38.41c-60.724,77.993-44.577,222.73,29.906,268.056c3.656-4.194,10.029-11.506,18.765-21.526L251.101,1428.78z"/>
	<path style="fill:#AEA992;" d="M292.281,1281.682l16.644,8.866l42.918,22.863l17.851,9.509l283.802,151.186l0.004-0.003
		l41.712,22.226l80.761,43.023l1.55,0.826l59.399,31.643l38.392,20.435c-0.004,0.004-0.006,0.007-0.008,0.012l207.611,110.597
		l-2.511-110.905l-647.083-341.918l-17.905-9.46l-129.363-68.355l-7.279-3.847l-38.648-20.421
		c-8.637,20.934-19.124,53.053-23.264,93.547L292.281,1281.682z"/>
	<path style="fill:#A91C1B;" d="M644.368,1674.039c0.772-0.636,1.543-1.272,2.312-1.907c7.583-6.272,14.923-12.536,22.026-18.781
		c0.004-0.002,0.008-0.006,0.01-0.009c36.988-32.513,67.58-64.467,92.927-94.093c30.569,23.076,62.572,47.012,88.625,66.431
		c8.682-10.852,17.011-21.957,25.038-33.414c0.002-0.005,0.005-0.008,0.008-0.012l-38.392-20.435l-59.412-31.623l-0.002,0
		c0.005-0.006,0.01-0.013,0.015-0.019l-1.55-0.826l-18.696-9.959c-0.001,0.002-0.003,0.003-0.003,0.005l-0.012-0.007l-62.05-33.063
		l-41.712-22.226c0,0.001,0.001,0.004,0.001,0.006c0.552,2.871,41.511,34.656,90.26,71.614
		c-25.735,30.374-57.031,63.294-95.169,96.798c-0.003,0.003-0.006,0.006-0.01,0.009c-7.117,6.252-14.472,12.524-22.073,18.804
		c-0.803,0.663-1.61,1.328-2.419,1.991c-7.312,6.001-14.851,12.009-22.622,18.01c-19.447,15.018-40.352,30.001-62.831,44.775
		l16.933,2.45c0,0,0.363,2.644,0.987,7.252c0.106,0.777,0.218,1.608,0.337,2.494c0.003-0.002,0.008-0.005,0.01-0.007
		c23.247-15.255,44.828-30.73,64.865-46.237C629.532,1686.056,637.062,1680.043,644.368,1674.039z"/>
	<polygon style="fill:#FFE100;" points="1231.639,1418.763 1077.307,1455.13 941.045,1487.241 939.591,1487.583 1079.719,1561.639 
		1095.612,1570.039 1095.617,1570.032 1229.417,1422.348 	"/>
	<path style="fill:#FFE100;" d="M232.409,1107.865c-0.005,0.005-0.01,0.011-0.014,0.016v6.008l0.014,0.008l14.304,7.558l4.821,2.547
		l32.762,17.312l120.682,63.765l-1.704-5.879l-52.962-182.805l-0.003-0.008l-2.98-10.287l-6.528-22.531
		c-56.253,64.438-96.216,110.293-108.217,124.093c-0.022,0.025-0.045,0.051-0.067,0.076
		C232.482,1107.782,232.445,1107.824,232.409,1107.865z"/>
	<path style="fill:#FFE100;" d="M919.242,323.282l34.276-8.848l53.905-13.914l43.48-11.223l4.401-1.137l108.73-28.067l42.538-10.981
		l0.023-0.006l-157.484-70.234C1045.573,180.993,994.425,238.151,919.242,323.282z"/>
	<polygon style="fill:#FFE100;" points="1810.648,548.537 1826.236,602.37 1861.63,724.587 1861.632,724.595 1861.632,724.595 
		1869.668,715.724 1932.959,645.866 1960.554,615.407 1979.884,594.072 1800.687,514.142 	"/>
</g>
</svg>
